<svg xmlns="http://www.w3.org/2000/svg" viewBox="0 0 1100 680" role="img" aria-labelledby="title desc">
  <title id="title">GPQA-Diamond 32K：质量与可见推理 token</title>
  <desc id="desc">GPQA-Diamond 的质量—token 二维图。GPT-OSS 与 Qwen3.5 的大模型都向更高准确率和更少相对 thinking tokens 移动，但只有 GPT-OSS 通过测量门禁；Qwen3.5 以虚线显示为未通过门禁。</desc>
  <defs>
    <style>
      text { font-family: "IBM Plex Sans", "PingFang SC", "Microsoft YaHei", sans-serif; fill: #201f1a; }
      .title { font-family: "IBM Plex Serif", "Songti SC", serif; font-size: 28px; font-weight: 600; }
      .subtitle { font-size: 15px; fill: #6b6458; }
      .axis-label { font-size: 15px; font-weight: 600; }
      .tick { font-size: 13px; fill: #6b6458; }
      .grid { stroke: #ded8ce; stroke-width: 1; }
      .axis { stroke: #6b6458; stroke-width: 1.5; }
      .series { fill: none; stroke-width: 4; }
      .series--gpt { stroke: #1f6fc6; }
      .series--qwen { stroke: #c65a1f; stroke-dasharray: 9 7; }
      .small { fill: #fffdf8; stroke-width: 4; }
      .large { stroke: #fffdf8; stroke-width: 2; }
      .gpt { stroke: #1f6fc6; fill: #1f6fc6; }
      .qwen { stroke: #c65a1f; fill: #c65a1f; }
      .small.gpt, .small.qwen { fill: #fffdf8; }
      .point-label { font-size: 14px; font-weight: 600; }
      .point-value { font-size: 13px; fill: #6b6458; }
      .note { font-size: 13px; fill: #6b6458; }
    </style>
  </defs>
  <rect width="1100" height="680" rx="18" fill="#fffdf8"/>
  <text x="58" y="54" class="title">GPQA-Diamond 32K：质量与可见推理</text>
  <text x="58" y="82" class="subtitle">K=8；thinking tokens 在家族内归一化（小模型 = 100）</text>

  <line x1="150" y1="130" x2="150" y2="560" class="axis"/>
  <line x1="150" y1="560" x2="1000" y2="560" class="axis"/>

  <g aria-hidden="true">
    <line x1="150" y1="474" x2="1000" y2="474" class="grid"/><text x="132" y="479" text-anchor="end" class="tick">20%</text>
    <line x1="150" y1="388" x2="1000" y2="388" class="grid"/><text x="132" y="393" text-anchor="end" class="tick">40%</text>
    <line x1="150" y1="302" x2="1000" y2="302" class="grid"/><text x="132" y="307" text-anchor="end" class="tick">60%</text>
    <line x1="150" y1="216" x2="1000" y2="216" class="grid"/><text x="132" y="221" text-anchor="end" class="tick">80%</text>
    <line x1="150" y1="130" x2="1000" y2="130" class="grid"/><text x="132" y="135" text-anchor="end" class="tick">100%</text>

    <line x1="150" y1="130" x2="150" y2="560" class="grid"/><text x="150" y="585" text-anchor="middle" class="tick">30</text>
    <line x1="262" y1="130" x2="262" y2="560" class="grid"/><text x="262" y="585" text-anchor="middle" class="tick">40</text>
    <line x1="374" y1="130" x2="374" y2="560" class="grid"/><text x="374" y="585" text-anchor="middle" class="tick">50</text>
    <line x1="486" y1="130" x2="486" y2="560" class="grid"/><text x="486" y="585" text-anchor="middle" class="tick">60</text>
    <line x1="598" y1="130" x2="598" y2="560" class="grid"/><text x="598" y="585" text-anchor="middle" class="tick">70</text>
    <line x1="711" y1="130" x2="711" y2="560" class="grid"/><text x="711" y="585" text-anchor="middle" class="tick">80</text>
    <line x1="823" y1="130" x2="823" y2="560" class="grid"/><text x="823" y="585" text-anchor="middle" class="tick">90</text>
    <line x1="935" y1="130" x2="935" y2="560" class="grid"/><text x="935" y="585" text-anchor="middle" class="tick">100</text>
  </g>

  <text x="575" y="625" text-anchor="middle" class="axis-label">相对 thinking tokens ← 越少越好</text>
  <text x="36" y="345" text-anchor="middle" transform="rotate(-90 36 345)" class="axis-label">准确率 avg@8 → 越高越好</text>

  <line x1="935" y1="272" x2="252" y2="246" class="series series--gpt"/>
  <circle cx="935" cy="272" r="9" class="small gpt"/>
  <polygon points="252,234 264,246 252,258 240,246" class="large gpt"/>
  <text x="800" y="294" class="point-label">GPT-OSS 20B</text>
  <text x="800" y="312" class="point-value">66.9% · 100</text>
  <text x="174" y="205" class="point-label">GPT-OSS 120B</text>
  <text x="174" y="223" class="point-value">73.1% · 39.1</text>

  <line x1="935" y1="241" x2="703" y2="207" class="series series--qwen"/>
  <circle cx="935" cy="241" r="9" class="small qwen"/>
  <polygon points="703,195 715,207 703,219 691,207" class="large qwen"/>
  <text x="808" y="178" class="point-label">Qwen3.5 9B</text>
  <text x="808" y="196" class="point-value">74.1% · 100</text>
  <text x="602" y="158" class="point-label">Qwen3.5 27B</text>
  <text x="602" y="176" class="point-value">82.2% · 79.3</text>

  <g transform="translate(58 654)">
    <circle cx="0" cy="-5" r="7" class="small gpt"/><text x="14" y="0" class="note">小模型</text>
    <polygon points="145,-12 152,-5 145,2 138,-5" class="large gpt"/><text x="160" y="0" class="note">大模型</text>
    <line x1="284" y1="-5" x2="324" y2="-5" class="series series--gpt"/><text x="336" y="0" class="note">通过门禁</text>
    <line x1="440" y1="-5" x2="480" y2="-5" class="series series--qwen"/><text x="492" y="0" class="note">未通过测量门禁</text>
  </g>
</svg>
